PathFileType	4	(X/Y/Z)	C:\Users\Basilio\Documents\Thesis Gigler\squatting_fais\c3dfiles\038\SLS_back_pre3\markers_experimental.trc
DataRate	CameraRate	NumFrames	NumMarkers	Units	OrigDataRate	OrigDataStartFrame	OrigNumFrames
200.000000	200.000000	4	63	mm	200.000000	234	1878
Frame#	Time	FHD			LBHD			RBHD			C7			T10			CLAV			LSHO			LUUPA			LMUPA			LDUPA			LLEP			LMEP			LRAD			LUL			LRFIN			RSHO			RUPA1			RMUPA			RDUPA			RLEP			RMEP			RRAD			RUL			RUFIN			LASI			RASI			USACR			LSACR			RSACR			LTHI1			LTHI2			LTHI3			LTHI4			LLFC			LMFC			LTIB1			LTIB2			LTIB3			LTIB4			LLMAL			LMMAL			LHEE			LMT1			LMT2			LMT5			RTHI			RTHI2			RTHI3			RTHI4			RLFC			RMFC			RTIB1			RTIB2			RTIB3			RTIB4			RLMAL			RMMAL			RHEE			RMT1			RMT2			RMT5			*61			*62			
		X1	Y1	Z1	X2	Y2	Z2	X3	Y3	Z3	X4	Y4	Z4	X5	Y5	Z5	X6	Y6	Z6	X7	Y7	Z7	X8	Y8	Z8	X9	Y9	Z9	X10	Y10	Z10	X11	Y11	Z11	X12	Y12	Z12	X13	Y13	Z13	X14	Y14	Z14	X15	Y15	Z15	X16	Y16	Z16	X17	Y17	Z17	X18	Y18	Z18	X19	Y19	Z19	X20	Y20	Z20	X21	Y21	Z21	X22	Y22	Z22	X23	Y23	Z23	X24	Y24	Z24	X25	Y25	Z25	X26	Y26	Z26	X27	Y27	Z27	X28	Y28	Z28	X29	Y29	Z29	X30	Y30	Z30	X31	Y31	Z31	X32	Y32	Z32	X33	Y33	Z33	X34	Y34	Z34	X35	Y35	Z35	X36	Y36	Z36	X37	Y37	Z37	X38	Y38	Z38	X39	Y39	Z39	X40	Y40	Z40	X41	Y41	Z41	X42	Y42	Z42	X43	Y43	Z43	X44	Y44	Z44	X45	Y45	Z45	X46	Y46	Z46	X47	Y47	Z47	X48	Y48	Z48	X49	Y49	Z49	X50	Y50	Z50	X51	Y51	Z51	X52	Y52	Z52	X53	Y53	Z53	X54	Y54	Z54	X55	Y55	Z55	X56	Y56	Z56	X57	Y57	Z57	X58	Y58	Z58	X59	Y59	Z59	X60	Y60	Z60	X61	Y61	Z61	X62	Y62	Z62	X63	Y63	Z63	

235	1.17	-156.7144470214844	1773.519165039063	-996.3302001953127	-312.2704162597657	1720.678588867188	-1053.111206054688	-301.5133361816407	1710.28564453125	-908.8505859375002	-359.3680114746094	1556.48193359375	-976.0862426757815	-389.6536254882814	1269.581420898438	-964.489196777344	-220.8556671142579	1511.797119140625	-989.4641113281252	-293.5989990234376	1551.236450195313	-1153.488525390625	-346.9620361328126	1316.068237304688	-1237.296264648438	-299.6061401367188	1301.022827148438	-1229.095581054688	-328.8319091796876	1249.251220703125	-1242.4404296875	-314.8718566894532	1191.770385742188	-1242.743896484375	-360.6415710449219	1170.276611328125	-1183.644897460938	-188.4532318115235	934.7960205078127	-1153.05322265625	-226.5189056396485	917.8528442382815	-1211.778930664063	-137.8574981689453	870.694763183594	-1164.62109375	-265.3507080078126	1545.51513671875	-816.7515258789065	-298.5910644531251	1341.464599609375	-706.1436767578126	-265.3953857421876	1309.7666015625	-721.3864135742189	-302.2778015136719	1273.48095703125	-690.5866088867189	-298.0012817382813	1199.877075195313	-678.0830688476564	-347.8245544433594	1177.961059570313	-737.4256591796876	-168.9824981689453	956.0317993164065	-743.6967163085939	-207.3955078125001	932.401062011719	-686.9175415039064	-121.3009796142578	885.0590820312502	-719.3032226562501	-223.4938964843751	1072.04638671875	-1082.376220703125	-223.5345001220704	1088.13134765625	-831.0169067382815	-393.3513183593751	1126.615356445313	-959.120300292969	-406.4004516601564	1096.455932617188	-986.179870605469	-404.4464721679689	1098.489379882813	-929.650573730469	-269.8015747070313	749.9303588867189	-1121.19677734375	-243.1495208740235	669.8942260742189	-1109.69140625	-197.8002014160157	673.5211791992189	-1086.348510742188	-274.0691528320313	622.6060791015626	-1090.468383789063	-272.6567382812501	560.3761596679689	-1080.778930664063	-266.8074035644532	554.7845458984376	-960.2539062500002	-257.6621704101563	370.8161621093751	-1005.880615234375	-301.7121582031251	331.1324768066407	-1072.542602539063	-267.6437377929688	324.2160034179688	-1041.935546875	-287.9298095703126	247.3332061767579	-1012.813842773438	-381.6090698242188	121.6937561035157	-1034.010986328125	-344.4476013183594	134.1958465576172	-962.7106933593752	-432.6747436523439	101.2235260009766	-981.101013183594	-233.8321533203126	46.56193161010743	-975.232604980469	-225.7260437011719	46.88671112060548	-1025.574951171875	-271.1011047363282	35.87223434448243	-1072.601684570313	-282.6557922363282	813.947448730469	-772.234558105469	-249.5907897949219	755.1881103515626	-767.0053100585939	-216.3946228027344	755.4851074218751	-771.0892333984377	-282.4233093261719	678.1527099609376	-785.918151855469	-276.1114196777344	542.2092285156251	-794.1883544921877	-275.1177062988282	540.5150146484376	-914.6323852539065	-243.503158569336	363.6987304687501	-819.1928710937502	-324.5190734863282	289.1650085449219	-781.3621826171877	-278.3759155273438	289.2620849609376	-791.682800292969	-272.3269348144532	237.7228240966797	-820.8846435546877	-344.5123596191407	121.2701492309571	-791.0325317382815	-314.6618347167969	126.8398208618164	-869.7713012695315	-405.9969482421876	87.02925872802736	-852.644958496094	-194.1552124023438	48.964168548584	-846.8353271484377	-196.0196228027344	49.3831024169922	-799.9739990234377	-239.595443725586	35.0721778869629	-755.4125976562501	nan	nan	nan	nan	nan	nan	
236	1.175	-156.7872772216797	1773.486450195313	-996.9305419921877	-312.4150695800782	1720.6611328125	-1053.636352539063	-301.5184020996094	1710.288818359375	-909.2998046875002	-359.3328247070313	1556.4697265625	-976.5999755859377	-389.7456359863282	1269.539184570313	-964.956481933594	-220.8847961425782	1511.71044921875	-989.983337402344	-293.6152038574219	1551.249755859375	-1153.969116210938	-346.9127807617188	1316.051147460938	-1237.937255859375	-299.5377197265626	1301.062744140625	-1229.718139648438	-328.7783813476563	1249.274536132813	-1243.034301757813	-314.9694213867188	1191.706298828125	-1243.2685546875	-360.6662902832032	1170.224487304688	-1184.209716796875	-188.4300231933594	934.8546142578127	-1153.796264648438	-226.4991912841797	917.8957519531252	-1212.485229492188	-137.7826843261719	870.745056152344	-1165.280029296875	-265.3558654785157	1545.574584960938	-817.2554931640627	-298.3571166992188	1341.54541015625	-706.4884643554689	-265.5392456054688	1309.757202148438	-721.8322753906251	-302.3047485351563	1273.397216796875	-691.0430908203126	-298.1895141601563	1199.89208984375	-678.7213134765626	-347.9183959960938	1177.926879882813	-738.0450439453126	-168.9451751708985	955.9505004882815	-744.2866210937501	-207.4812927246094	932.4548950195315	-687.5043334960939	-121.385482788086	885.0862426757815	-719.8263549804689	-223.6308746337891	1072.008544921875	-1082.720581054688	-223.6940307617188	1088.05224609375	-831.3955078125002	-393.5350341796876	1126.704956054688	-959.603698730469	-406.4241638183595	1096.69873046875	-986.5122680664065	-404.5633544921876	1098.47900390625	-930.0903320312502	-269.7900085449219	749.8688354492189	-1121.47607421875	-243.2898864746094	669.9152832031251	-1109.9853515625	-197.9152832031251	673.5003662109376	-1086.553955078125	-274.1149902343751	622.4412841796876	-1090.849609375	-272.5754394531251	560.6270751953126	-1080.916625976563	-267.1025085449219	554.8684692382814	-960.4669189453127	-257.7303161621094	370.8179016113282	-1005.990905761719	-301.6622924804688	331.0441894531251	-1072.572631835938	-267.7007751464844	324.2041931152344	-1041.931274414063	-287.9603271484376	247.2709960937501	-1012.874877929688	-381.5181274414063	121.6725997924805	-1034.010864257813	-344.4657287597657	134.1397705078125	-962.7207641601565	-432.6515197753907	101.2132339477539	-981.120788574219	-233.8181915283204	46.56650161743165	-975.1619873046877	-225.7826080322266	46.77120208740235	-1025.628295898438	-271.1105957031251	35.87029647827149	-1072.589111328125	-282.4077758789063	813.877136230469	-772.706726074219	-249.4238739013672	755.1626586914064	-767.4324951171876	-216.3282775878907	755.4923706054689	-771.4868774414065	-282.1340026855469	678.0567626953126	-786.3096923828127	-275.8211975097657	542.2677001953126	-794.4982910156252	-275.0472106933594	540.5250244140626	-914.940368652344	-243.3888244628907	363.6355285644532	-819.444763183594	-324.3912353515626	289.2347717285157	-781.5818481445315	-278.3257446289063	289.2839660644532	-791.8679199218752	-272.0181884765626	237.5471343994141	-821.0639648437502	-344.4670104980469	121.3469696044922	-791.1151123046877	-314.7478332519532	126.8203048706055	-869.868347167969	-406.0890197753907	86.93934631347658	-852.625427246094	-194.1483001708985	48.95343017578126	-846.858337402344	-195.9498901367188	49.40398025512697	-800.001159667969	-239.5704803466797	35.14111709594727	-755.4817504882814	nan	nan	nan	nan	nan	nan	
237	1.18	-156.8672485351563	1773.502563476563	-997.5115356445315	-312.1811218261719	1720.964233398438	-1054.07861328125	-301.6231994628907	1710.278564453125	-909.7412719726565	-359.3713378906251	1556.338500976563	-977.059997558594	-389.724578857422	1269.575317382813	-965.4262695312502	-220.9292449951172	1511.653198242188	-990.5498657226565	-293.6555175781251	1551.239501953125	-1154.5458984375	-346.8646850585938	1316.072509765625	-1238.480712890625	-299.6020202636719	1301.041137695313	-1230.217163085938	-328.7819824218751	1249.377075195313	-1243.637817382813	-314.9680175781251	1191.71533203125	-1243.9873046875	-360.7248229980469	1170.259521484375	-1184.770874023438	-188.515121459961	934.8073730468752	-1154.4384765625	-226.4306335449219	917.919616699219	-1213.14404296875	-137.7804718017578	870.7070922851565	-1166.001708984375	-265.4663696289063	1545.494873046875	-817.756774902344	-298.7412414550782	1341.292602539063	-707.2926635742189	-265.4233398437501	1309.87939453125	-722.0844116210939	-302.3562011718751	1273.444580078125	-691.5602416992189	-298.2258605957032	1199.876708984375	-679.1845703125001	-347.9721679687501	1177.84326171875	-738.5265502929689	-169.0499420166016	955.9082031250002	-744.7191162109376	-207.5644226074219	932.382751464844	-687.9906616210939	-121.8872833251953	884.7265625000002	-720.6843261718751	-223.6261749267579	1071.977172851563	-1083.18994140625	-223.8212890625001	1088.030029296875	-831.809997558594	-393.6520996093751	1126.675659179688	-960.0822753906252	-406.3692932128907	1096.72021484375	-986.8745727539065	-404.5248107910157	1098.45556640625	-930.4338378906252	-269.9153442382813	749.8251342773439	-1121.819213867188	-243.4227294921876	669.9058227539064	-1110.200317382813	-197.9967041015626	673.4328002929689	-1086.774047851563	-274.2901916503907	622.4689331054689	-1091.018310546875	-272.6269531250001	560.5584106445314	-1081.124145507813	-267.3413085937501	554.9109497070314	-960.7010498046877	-257.8354492187501	370.8553466796876	-1006.112609863281	-301.7275390625001	330.9856567382813	-1072.636962890625	-267.7055969238282	324.2015380859376	-1042.008056640625	-288.0045471191407	247.2723236083985	-1012.942626953125	-381.6234130859376	121.6098251342774	-1034.022094726563	-344.4633178710938	134.1441345214844	-962.7204589843752	-432.6212463378907	101.1180267333985	-981.137634277344	-233.8414916992188	46.57848358154298	-975.1700439453127	-225.7507324218751	46.89357376098634	-1025.584594726563	-271.0629882812501	35.88889312744141	-1072.58447265625	-282.3213806152344	813.881042480469	-773.1392822265627	-249.1882934570313	755.1267089843751	-767.8991699218751	-216.1313018798829	755.5568847656251	-771.9107666015627	-281.8937072753907	678.0393066406251	-786.6794433593752	-275.8684997558594	542.1353149414064	-794.861755371094	-274.9649658203126	540.5336303710939	-915.2454833984377	-243.2119293212891	363.9394226074219	-819.4204101562502	-324.0555725097657	288.9679260253907	-781.7847900390627	-278.1741027832032	289.2933959960938	-792.0546875000002	-271.9545593261719	237.5974426269532	-821.3025512695315	-344.4702453613282	121.4344024658203	-791.166198730469	-314.7438354492188	126.8372344970703	-869.990417480469	-405.8981933593751	86.98292541503908	-852.7586059570315	-194.1436920166016	48.95461273193361	-846.8784790039065	-195.9515533447266	49.447322845459	-800.0584716796877	-239.5451202392579	35.25157546997071	-755.5125122070314	nan	nan	nan	nan	nan	nan	
238	1.185	-156.9225158691407	1773.497802734375	-997.9846801757815	-312.1723327636719	1720.879638671875	-1054.662231445313	-301.6733398437501	1710.266967773438	-910.3418579101565	-359.4860839843751	1556.38525390625	-977.6765747070315	-389.7871093750001	1269.585205078125	-965.8775634765627	-220.9876861572266	1511.73828125	-991.0778808593752	-293.7296752929688	1551.168823242188	-1155.06298828125	-346.8720703125001	1316.1298828125	-1239.01708984375	-299.5498657226563	1301.041259765625	-1230.843017578125	-328.8535766601563	1249.35498046875	-1244.20556640625	-314.9422607421876	1191.778442382813	-1244.603515625	-360.6889038085938	1170.170654296875	-1185.437622070313	-188.4271697998047	934.742614746094	-1155.9736328125	-226.3811035156251	917.8491210937502	-1213.829345703125	-137.7393035888672	870.7173461914065	-1166.635620117188	-265.5962829589844	1545.460327148438	-818.2934570312502	-298.9895629882813	1341.3330078125	-707.3244628906251	-265.4837951660157	1309.822143554688	-722.6816406250001	-302.5472717285157	1273.360473632813	-692.0842895507814	-298.3538818359376	1199.860229492188	-679.6349487304689	-348.0696716308594	1177.864379882813	-739.0354003906251	-169.1494750976563	955.8786621093752	-745.3017578125001	-207.7321319580079	932.3594360351565	-688.5362548828126	-122.0560531616211	884.7922973632815	-721.1277465820314	-223.7143859863282	1071.955200195313	-1083.78125	-223.9875183105469	1087.958984375	-832.3057250976565	-393.8700256347657	1126.701416015625	-960.4358520507815	-406.4116821289064	1096.734741210938	-987.303161621094	-404.7271423339845	1098.512939453125	-930.866638183594	-270.0239257812501	749.7265014648439	-1122.176635742188	-243.484115600586	669.8447875976564	-1110.452880859375	-198.0983276367188	673.4031372070314	-1086.998901367188	-274.3239135742188	622.4133300781251	-1091.295654296875	-272.9896850585938	560.2229614257814	-1081.388671875	-267.5605163574219	554.9330444335939	-960.994567871094	-257.9005432128907	370.8898620605469	-1006.210815429688	-301.7637939453126	330.9251403808594	-1072.752563476563	-267.7332458496094	324.1894836425782	-1042.13623046875	-288.0593566894532	247.3216400146485	-1012.933349609375	-381.6124572753907	121.6066207885742	-1034.041381835938	-344.5272216796876	134.1542205810547	-962.7268676757815	-432.6430664062501	101.135009765625	-981.135925292969	-233.8220367431641	46.46628952026368	-975.1433105468752	-225.7632904052735	46.82423400878907	-1025.667114257813	-271.0992431640626	35.91124725341798	-1072.592895507813	-282.3344421386719	813.957946777344	-773.4484863281252	-248.8493041992188	754.7474365234376	-768.1753540039065	-215.9388122558594	755.6325683593751	-772.3096923828127	-281.6632385253907	677.9865112304689	-786.9421997070315	-275.6437072753907	542.0701293945314	-795.0361938476565	-274.8901672363282	540.5141601562501	-915.5100097656252	-243.148910522461	363.9165344238282	-819.639587402344	-323.9291687011719	289.0325927734376	-781.9937133789065	-278.0079650878907	289.2955932617188	-792.172058105469	-271.7577209472657	237.5789947509766	-821.555847167969	-344.4252624511719	121.5457534790039	-791.261657714844	-314.7505798339844	126.8779678344727	-870.1424560546877	-406.0375366210939	86.98105621337892	-852.7497558593752	-194.1058349609376	48.88118362426759	-846.9423828125002	-195.9792022705079	49.44491577148439	-800.052673339844	-239.5474395751954	35.30524826049805	-755.5914306640626	nan	nan	nan	nan	nan	nan	
